<?xml version="1.0" encoding="UTF-8" standalone="no"?><svg xmlns="http://www.w3.org/2000/svg" xmlns:xlink="http://www.w3.org/1999/xlink" contentStyleType="text/css" height="277px" preserveAspectRatio="none" style="width:303px;height:277px;background:#FFFFFF;" version="1.1" viewBox="0 0 303 277" width="303px" zoomAndPan="magnify"><defs/><g><ellipse cx="227" cy="20" fill="#222222" rx="10" ry="10" style="stroke:#222222;stroke-width:1.0;"/><path d="M50.5,98.319 L50.5,126.0251 A0,0 0 0 0 50.5,126.0251 L180.5,126.0251 A0,0 0 0 0 180.5,126.0251 L180.5,116.319 L200.5,112.1721 L180.5,108.319 L180.5,108.319 L170.5,98.319 L50.5,98.319 A0,0 0 0 0 50.5,98.319 " fill="#FEFFDD" style="stroke:#181818;stroke-width:0.5;"/><path d="M170.5,98.319 L170.5,108.319 L180.5,108.319 L170.5,98.319 " fill="#FEFFDD" style="stroke:#181818;stroke-width:0.5;"/><text fill="#000000" font-family="sans-serif" font-size="13" lengthAdjust="spacing" textLength="109" x="56.5" y="117.2161">Build local context</text><rect fill="#F1F1F1" height="36.3441" rx="12.5" ry="12.5" style="stroke:#181818;stroke-width:0.5;" width="53" x="200.5" y="94"/><text fill="#000000" font-family="sans-serif" font-size="12" lengthAdjust="spacing" textLength="33" x="210.5" y="116.8281">sense</text><path d="M71.5,154.6632 L71.5,182.3692 A0,0 0 0 0 71.5,182.3692 L185.5,182.3692 A0,0 0 0 0 185.5,182.3692 L185.5,172.6632 L205.5,168.5162 L185.5,164.6632 L185.5,164.6632 L175.5,154.6632 L71.5,154.6632 A0,0 0 0 0 71.5,154.6632 " fill="#FEFFDD" style="stroke:#181818;stroke-width:0.5;"/><path d="M175.5,154.6632 L175.5,164.6632 L185.5,164.6632 L175.5,154.6632 " fill="#FEFFDD" style="stroke:#181818;stroke-width:0.5;"/><text fill="#000000" font-family="sans-serif" font-size="13" lengthAdjust="spacing" textLength="93" x="77.5" y="173.5602">Produce export</text><rect fill="#F1F1F1" height="36.3441" rx="12.5" ry="12.5" style="stroke:#181818;stroke-width:0.5;" width="43" x="205.5" y="150.3441"/><text fill="#000000" font-family="sans-serif" font-size="12" lengthAdjust="spacing" textLength="23" x="215.5" y="173.1722">eval</text><path d="M45,211.0073 L45,238.7133 A0,0 0 0 0 45,238.7133 L169,238.7133 A0,0 0 0 0 169,238.7133 L169,229.0073 L189,224.8603 L169,221.0073 L169,221.0073 L159,211.0073 L45,211.0073 A0,0 0 0 0 45,211.0073 " fill="#FEFFDD" style="stroke:#181818;stroke-width:0.5;"/><path d="M159,211.0073 L159,221.0073 L169,221.0073 L159,211.0073 " fill="#FEFFDD" style="stroke:#181818;stroke-width:0.5;"/><text fill="#000000" font-family="sans-serif" font-size="13" lengthAdjust="spacing" textLength="103" x="51" y="229.9043">Broadcast export</text><rect fill="#F1F1F1" height="36.3441" rx="12.5" ry="12.5" style="stroke:#181818;stroke-width:0.5;" width="76" x="189" y="206.6882"/><text fill="#000000" font-family="sans-serif" font-size="12" lengthAdjust="spacing" textLength="56" x="199" y="229.5163">broadcast</text><polygon fill="#F1F1F1" points="210.5,50,243.5,50,255.5,62,243.5,74,210.5,74,198.5,62,210.5,50" style="stroke:#181818;stroke-width:0.5;"/><text fill="#000000" font-family="sans-serif" font-size="11" lengthAdjust="spacing" textLength="33" x="210.5" y="66.268">round</text><ellipse cx="24" cy="105" fill="none" rx="11" ry="11" style="stroke:#222222;stroke-width:1.0;"/><ellipse cx="24" cy="105" fill="#222222" rx="6" ry="6" style="stroke:#111111;stroke-width:1.0;"/><line style="stroke:#181818;stroke-width:1.0;" x1="227" x2="227" y1="130.3441" y2="150.3441"/><polygon fill="#181818" points="223,140.3441,227,150.3441,231,140.3441,227,144.3441" style="stroke:#181818;stroke-width:1.0;"/><line style="stroke:#181818;stroke-width:1.0;" x1="227" x2="227" y1="186.6882" y2="206.6882"/><polygon fill="#181818" points="223,196.6882,227,206.6882,231,196.6882,227,200.6882" style="stroke:#181818;stroke-width:1.0;"/><line style="stroke:#181818;stroke-width:1.0;" x1="227" x2="227" y1="74" y2="94"/><polygon fill="#181818" points="223,84,227,94,231,84,227,88" style="stroke:#181818;stroke-width:1.0;"/><line style="stroke:#181818;stroke-width:1.0;" x1="227" x2="227" y1="243.0323" y2="253.0323"/><line style="stroke:#181818;stroke-width:1.0;" x1="227" x2="277" y1="253.0323" y2="253.0323"/><polygon fill="#181818" points="273,166.5162,277,156.5162,281,166.5162,277,162.5162" style="stroke:#181818;stroke-width:1.0;"/><line style="stroke:#181818;stroke-width:1.0;" x1="277" x2="277" y1="62" y2="253.0323"/><line style="stroke:#181818;stroke-width:1.0;" x1="277" x2="255.5" y1="62" y2="62"/><polygon fill="#181818" points="265.5,58,255.5,62,265.5,66,261.5,62" style="stroke:#181818;stroke-width:1.0;"/><line style="stroke:#181818;stroke-width:1.0;" x1="198.5" x2="24" y1="62" y2="62"/><line style="stroke:#181818;stroke-width:1.0;" x1="24" x2="24" y1="62" y2="94"/><polygon fill="#181818" points="20,84,24,94,28,84,24,88" style="stroke:#181818;stroke-width:1.0;"/><line style="stroke:#181818;stroke-width:1.0;" x1="227" x2="227" y1="30" y2="50"/><polygon fill="#181818" points="223,40,227,50,231,40,227,44" style="stroke:#181818;stroke-width:1.0;"/><!--MD5=[400a42a85ed10f81342352e654953165]
@startuml
start
while (round)
:sense;
note left: Build local context
:eval;
note left: Produce export
:broadcast;
note left: Broadcast export
endwhile
stop
@enduml

PlantUML version 1.2022.7(Mon Aug 22 19:01:30 CEST 2022)
(GPL source distribution)
Java Runtime: OpenJDK Runtime Environment
JVM: OpenJDK 64-Bit Server VM
Default Encoding: UTF-8
Language: en
Country: US
--></g></svg>